<?xml version="1.0" standalone="no"?>
<!DOCTYPE svg PUBLIC "-//W3C//DTD SVG 20010904//EN"
 "http://www.w3.org/TR/2001/REC-SVG-20010904/DTD/svg10.dtd">
<svg version="1.0" xmlns="http://www.w3.org/2000/svg"
 width="600pt" height="300pt" viewBox="0 0 600 300"
 preserveAspectRatio="xMidYMid meet">

<g transform="translate(0.000000,285.000000) scale(0.100000,-0.100000)"
fill="#000000" stroke="none">
<path d="M800 2333 c-134 -302 -163 -367 -253 -568 -46 -104 -141 -316 -210
-470 -69 -154 -141 -315 -161 -358 l-35 -78 86 3 87 3 12 65 c15 79 45 162
122 340 l59 135 329 0 c285 0 334 -2 365 -17 34 -15 40 -25 89 -150 29 -73 66
-188 83 -255 l31 -123 138 0 c76 0 138 1 138 3 0 4 -71 169 -95 222 -8 17 -75
174 -151 350 -75 176 -165 385 -199 465 -35 80 -109 251 -164 380 l-99 235
-45 3 -44 3 -83 -188z m127 -225 c29 -68 97 -228 153 -356 55 -128 100 -236
100 -240 0 -4 -140 -6 -311 -4 -289 2 -311 4 -306 20 2 9 66 161 141 337 75
176 141 330 146 343 5 12 13 22 18 22 4 0 31 -55 59 -122z"/>
<path d="M1917 2511 c-1 -3 -1 -376 1 -828 l4 -823 99 0 99 0 0 404 c0 223 3
407 8 409 4 2 47 2 95 -1 l88 -5 39 -56 c22 -31 45 -63 50 -71 32 -50 287
-436 359 -545 l87 -130 152 -3 c84 -1 152 -1 152 0 0 2 -42 46 -92 99 -51 53
-103 109 -115 125 -12 16 -32 42 -44 57 -17 22 -154 227 -219 327 -5 8 -39 60
-76 114 -36 55 -68 105 -71 112 -3 8 23 21 79 38 142 43 251 128 311 241 31
58 32 65 32 180 0 109 -2 124 -24 160 -59 99 -162 164 -289 184 -73 12 -721
23 -725 12z m558 -81 c192 -28 285 -130 285 -312 0 -40 -4 -78 -8 -83 -5 -6
-16 -31 -25 -56 -29 -78 -123 -160 -222 -192 -65 -22 -220 -36 -312 -30 l-73
6 0 318 c0 304 1 319 19 329 51 27 218 37 336 20z"/>
<path d="M3160 2447 c0 -60 2 -68 18 -63 75 21 162 29 322 30 l185 1 3 -774
c2 -605 5 -777 15 -783 12 -8 163 -9 184 -1 10 4 13 170 13 762 0 416 0 767 0
780 l0 24 203 -6 c115 -4 229 -12 265 -21 74 -16 75 -15 70 63 l-3 52 -638 2
-637 2 0 -68z"/>
<path d="M4951 2478 c-10 -24 -93 -209 -184 -413 -90 -203 -240 -539 -332
-745 -92 -206 -176 -392 -186 -412 -10 -21 -19 -40 -19 -43 0 -3 38 -5 84 -5
l83 0 18 83 c10 47 52 165 98 275 l80 193 326 -3 c405 -4 388 1 442 -133 67
-166 119 -338 119 -392 0 -23 0 -23 144 -23 l145 0 -106 243 c-58 133 -116
267 -128 297 -12 30 -100 235 -195 455 -95 220 -197 460 -228 533 l-55 132
-44 0 c-42 0 -44 -2 -62 -42z m155 -588 c80 -184 149 -345 154 -357 l9 -22
-307 -3 c-169 -2 -311 0 -315 3 -4 3 6 37 24 75 51 114 256 597 264 622 4 13
11 22 17 20 5 -2 75 -154 154 -338z"/>
<path d="M1850 352 c0 -228 2 -250 18 -265 10 -10 31 -17 45 -17 22 0 27 5 27
25 0 15 -6 25 -14 25 -8 0 -17 7 -20 16 -3 9 -6 117 -6 240 l0 224 -25 0 -25
0 0 -248z"/>
<path d="M2430 340 l0 -260 25 0 c16 0 25 6 25 16 0 9 3 14 8 12 85 -44 128
-46 181 -9 45 32 66 85 66 166 -1 82 -20 126 -68 155 -41 25 -83 25 -132 0
-22 -11 -41 -20 -42 -20 -2 0 -3 45 -3 100 l0 100 -30 0 -30 0 0 -260z m200
37 c69 -35 61 -205 -11 -242 -36 -19 -53 -19 -95 1 l-34 16 0 97 c0 89 2 97
23 111 49 33 78 37 117 17z"/>
<path d="M3200 352 c0 -228 2 -250 18 -265 10 -10 31 -17 45 -17 22 0 27 5 27
25 0 15 -6 25 -14 25 -8 0 -17 7 -20 16 -3 9 -6 117 -6 240 l0 224 -25 0 -25
0 0 -248z"/>
<path d="M4690 340 l0 -260 30 0 c29 0 30 2 30 46 0 34 7 54 26 80 15 19 30
34 34 34 5 0 30 -36 57 -80 45 -74 50 -79 82 -80 33 0 33 0 18 24 -9 13 -39
61 -68 105 l-51 81 44 53 c77 92 75 87 40 87 -27 0 -42 -12 -107 -91 l-75 -91
0 176 0 176 -30 0 -30 0 0 -260z"/>
<path d="M1505 551 c-22 -10 -50 -28 -62 -40 -64 -61 -90 -187 -58 -283 24
-76 51 -107 113 -136 44 -20 64 -24 109 -19 29 3 68 14 86 24 l32 19 3 107 3
107 -76 0 c-73 0 -75 -1 -75 -25 0 -23 3 -25 50 -25 l50 0 0 -66 0 -65 -36
-15 c-86 -36 -181 22 -203 125 -21 100 5 185 71 235 37 26 112 27 156 1 29
-17 34 -18 42 -5 15 23 8 33 -40 58 -54 27 -111 28 -165 3z"/>
<path d="M3540 321 l0 -241 26 0 25 0 -3 199 c-2 110 -2 199 -1 198 1 -1 29
-80 63 -174 55 -154 65 -173 85 -173 19 0 28 18 79 158 31 86 56 162 56 169 0
6 3 14 8 16 4 3 6 -84 4 -194 l-3 -199 26 0 25 0 0 241 0 240 -37 -3 -37 -3
-60 -173 -59 -174 -62 174 -61 173 -37 3 -37 3 0 -240z"/>
<path d="M5410 485 c0 -54 0 -55 -30 -55 -25 0 -30 -4 -30 -25 0 -20 5 -25 25
-25 l25 0 0 -102 c0 -57 5 -120 11 -140 13 -48 55 -72 111 -65 47 6 49 7 42
33 -4 16 -12 19 -38 16 -54 -6 -66 21 -66 150 l0 108 50 0 c47 0 50 2 50 25 0
23 -3 25 -50 25 l-50 0 0 55 c0 52 -1 55 -25 55 -24 0 -25 -3 -25 -55z"/>
<path d="M2120 433 c-129 -53 -151 -254 -38 -335 44 -31 134 -33 174 -2 54 40
68 70 72 147 2 60 -1 78 -20 111 -13 22 -35 48 -50 59 -27 20 -109 32 -138 20z
m112 -72 c32 -28 33 -32 33 -106 0 -74 -1 -78 -33 -106 -74 -66 -162 -8 -162
106 0 114 88 172 162 106z"/>
<path d="M2868 418 c-51 -22 -56 -29 -34 -47 10 -8 22 -7 49 4 55 23 92 19
116 -11 34 -44 28 -61 -26 -69 -80 -12 -139 -42 -158 -81 -48 -101 60 -178
168 -120 45 24 47 25 47 6 0 -15 7 -20 25 -20 l25 0 0 131 c0 102 -4 139 -17
166 -29 63 -109 80 -195 41z m152 -208 c0 -46 -3 -52 -32 -70 -40 -24 -85 -26
-110 -3 -38 35 -10 86 60 107 79 24 82 23 82 -34z"/>
<path d="M4111 423 c-47 -19 -56 -30 -42 -52 8 -12 15 -11 50 3 23 9 52 16 65
16 30 0 63 -28 71 -60 6 -24 3 -26 -62 -38 -89 -17 -140 -50 -149 -97 -19
-104 93 -161 186 -95 l31 22 6 -21 c3 -14 13 -21 29 -21 24 0 24 0 24 118 0
134 -10 179 -45 212 -32 30 -105 36 -164 13z m149 -212 c0 -42 -4 -51 -26 -66
-40 -26 -97 -31 -117 -10 -39 39 -12 86 65 110 74 23 78 21 78 -34z"/>
<path d="M4527 410 c-35 -30 -47 -30 -47 2 0 13 -7 18 -25 18 l-25 0 0 -175 0
-175 30 0 30 0 0 110 c0 129 12 164 65 186 19 8 40 13 46 12 7 -2 15 9 20 25
7 26 6 27 -27 27 -23 0 -44 -9 -67 -30z"/>
<path d="M5115 426 c-69 -31 -112 -114 -102 -199 15 -118 121 -183 237 -144
24 8 35 18 35 32 0 21 1 21 -79 8 -54 -8 -100 18 -120 68 -9 22 -16 42 -16 44
0 3 54 5 120 5 l120 0 0 40 c0 116 -99 190 -195 146z m113 -58 c11 -13 24 -35
27 -50 l7 -28 -95 0 -96 0 11 30 c22 66 104 92 146 48z"/>
<path d="M5673 425 c-38 -16 -53 -42 -53 -88 0 -41 26 -67 95 -97 59 -25 85
-47 85 -70 0 -47 -80 -65 -147 -33 -30 14 -36 14 -44 2 -14 -22 -11 -26 34
-48 82 -40 177 -18 204 46 22 55 -6 108 -70 134 -104 40 -118 55 -91 97 16 25
26 26 129 10 12 -2 21 4 23 15 8 38 -102 60 -165 32z"/>
</g>
</svg>
