<svg t="1717058406276" class="icon" viewBox="0 0 1024 1024" version="1.1" xmlns="http://www.w3.org/2000/svg" p-id="6545" width="200" height="200"><path d="M51.2 512c0 254.976 205.824 460.8 460.8 460.8s460.8-205.824 460.8-460.8S766.976 51.2 512 51.2 51.2 257.024 51.2 512z" fill="#E9FFF6" p-id="6546"></path><path d="M689.152 647.168c-4.096 39.936-39.936 70.656-81.92 64.512C439.296 696.32 317.44 544.768 334.848 375.808c4.096-39.936 39.936-69.632 81.92-64.512 4.096 0 8.192 2.048 12.288 2.048 33.792 10.24 58.368 43.008 55.296 79.872-4.096 36.864-33.792 64.512-69.632 67.584 16.384 70.656 64.512 132.096 131.072 162.816 10.24-33.792 43.008-58.368 79.872-55.296 36.864 4.096 64.512 33.792 67.584 69.632-3.072 3.072-3.072 7.168-4.096 9.216z" fill="#7DC75D" p-id="6547"></path></svg>